<svg width="50" height="48" viewBox="0 0 50 48" fill="none" xmlns="http://www.w3.org/2000/svg">
<path d="M49.1667 40.6666H48.3333V10.6666C48.3333 8.82567 46.8409 7.33327 45 7.33327H37.5V1.49994C37.5 1.03973 37.127 0.666608 36.6668 0.666504C36.6153 0.666504 36.564 0.671296 36.5133 0.680775L31.5133 1.61827L30.68 1.77494L23.2558 3.16661H18.3333C17.4128 3.16661 16.6667 3.91275 16.6667 4.83327C15.0119 4.83546 13.5152 5.81661 12.8533 7.33327H5C3.15906 7.33327 1.66667 8.82567 1.66667 10.6666V40.6666H0.833333C0.373125 40.6666 0 41.0397 0 41.4999V43.9999C0 45.8409 1.4924 47.3333 3.33333 47.3333H46.6667C48.5076 47.3333 50 45.8409 50 43.9999V41.4999C50 41.0397 49.6269 40.6666 49.1667 40.6666ZM24.1667 4.69161L35.8333 2.50411V15.4999L24.1667 13.3083V4.69161ZM24.1667 14.9999L25.8333 15.3124V16.4999H24.1667V14.9999ZM18.3333 4.83327H22.5V13.1666H18.3333V4.83327ZM20 19.8333V14.8333H22.5V19.8333H20ZM22.5 21.4999V22.7499C22.5 23.4403 21.9403 23.9999 21.25 23.9999C20.5597 23.9999 20 23.4403 20 22.7499V21.4999H22.5ZM16.6667 6.49994V11.4999C15.2859 11.4999 14.1667 10.3807 14.1667 8.99994C14.1667 7.61921 15.2859 6.49994 16.6667 6.49994ZM3.33333 10.6666C3.33333 9.74609 4.07948 8.99994 5 8.99994H12.5C12.5027 11.2999 14.3667 13.1639 16.6667 13.1666C16.6667 14.0871 17.4128 14.8333 18.3333 14.8333V22.7499C18.3333 24.3608 19.6392 25.6666 21.25 25.6666C22.8608 25.6666 24.1667 24.3608 24.1667 22.7499V18.1666H26.6667C27.1269 18.1666 27.5 17.7935 27.5 17.3333V15.6291L36.5133 17.3191C36.564 17.3284 36.6152 17.3332 36.6667 17.3333C37.1269 17.3333 37.5 16.9602 37.5 16.4999V8.99994H45C45.9205 8.99994 46.6667 9.74609 46.6667 10.6666V40.6666H32.5C32.2792 40.6664 32.0672 40.754 31.9108 40.9099L30.4883 42.3333H19.5117L18.0892 40.9099C17.9328 40.754 17.7208 40.6664 17.5 40.6666H3.33333V10.6666ZM48.3333 43.9999C48.3333 44.9205 47.5872 45.6666 46.6667 45.6666H3.33333C2.41281 45.6666 1.66667 44.9205 1.66667 43.9999V42.3333H17.155L18.5775 43.7558C18.7337 43.912 18.9456 43.9999 19.1667 43.9999H30.8333C31.0544 43.9999 31.2663 43.912 31.4225 43.7558L32.845 42.3333H48.3333V43.9999Z" fill="black"/>
</svg>
