<svg width="40" height="50" viewBox="0 0 40 50" fill="none" xmlns="http://www.w3.org/2000/svg">
<path d="M38.6627 31.3845H35.1734V30.7691C35.1734 28.441 33.5255 26.4915 31.3381 26.0321V4.69756C31.3381 2.10732 29.2229 0 26.6229 0H5.07583C2.47583 0 0.360596 2.10732 0.360596 4.69756V45.2937C0.360596 47.8888 2.47183 50 5.06694 50H35.7486C37.894 50 39.6394 48.2546 39.6394 46.1092V32.361C39.6393 31.8217 39.2021 31.3845 38.6627 31.3845ZM33.2203 30.7691V31.3845H27.4754V30.7691C27.4754 29.1775 28.764 27.8827 30.3479 27.8827C31.9318 27.8828 33.2203 29.1775 33.2203 30.7691ZM15.8494 31.4706C10.793 31.4706 6.67935 27.3569 6.67935 22.3005C6.67935 17.2441 10.793 13.1305 15.8494 13.1305C20.9058 13.1305 25.0195 17.2441 25.0195 22.3005C25.0195 27.3569 20.9058 31.4706 15.8494 31.4706ZM22.2621 31.3845C25.11 29.3681 26.9727 26.0477 26.9727 22.3004C26.9727 16.167 21.9828 11.1772 15.8495 11.1772C9.71606 11.1772 4.72632 16.1671 4.72632 22.3004C4.72632 28.4338 9.71616 33.4236 15.8495 33.4236C17.7557 33.4236 19.5514 32.9416 21.1213 32.0931C21.0971 32.1782 21.0841 32.2681 21.0841 32.3609V40.2507H2.31372V8.25635H29.3851V26.0265C27.184 26.4752 25.5223 28.4312 25.5223 30.7691V31.3845H22.2621ZM5.07583 1.95312H26.623C28.146 1.95312 29.3851 3.18418 29.3851 4.69756V6.30322H2.31372V4.69756C2.31372 3.18418 3.55278 1.95312 5.07583 1.95312ZM2.31372 45.2937V42.2039H21.084V46.1092C21.084 46.8142 21.2725 47.476 21.6017 48.0469H5.06694C3.54878 48.0469 2.31372 46.8118 2.31372 45.2937ZM37.6862 46.1092C37.6862 47.1775 36.8169 48.0469 35.7485 48.0469H24.9748C23.9064 48.0469 23.0371 47.1776 23.0371 46.1092V33.3376H25.5222V36.123C25.5222 36.6624 25.9595 37.0996 26.4988 37.0996C27.038 37.0996 27.4753 36.6624 27.4753 36.123V33.3376H33.2202V36.123C33.2202 36.6624 33.6574 37.0996 34.1967 37.0996C34.736 37.0996 35.1733 36.6624 35.1733 36.123V33.3376H37.6861V46.1092H37.6862Z" fill="black"/>
</svg>
